<svg xmlns="http://www.w3.org/2000/svg" viewBox="0 0 560 360" fill="none" aria-hidden="true">
  <rect width="560" height="360" rx="20" fill="#faf8f5"/>
  <!-- @8>B>? / A>;><8=:0 -->
  <rect x="168" y="148" width="140" height="18" rx="9" fill="#fff" stroke="#1a2b4a" stroke-width="2"/>
  <circle cx="210" cy="157" r="6" fill="#e8d44a" stroke="#e8482a" stroke-width="1.2"/>
  <text x="238" y="161" fill="#1a2b4a" font-family="Inter, sans-serif" font-size="10">>>F8B =0 :@8>B>?5</text>
  <!-- ViT1 ViT2 -->
  <rect x="72" y="108" width="48" height="88" rx="8" fill="#2d8a4e" opacity="0.18" stroke="#2d8a4e" stroke-width="2"/>
  <rect x="84" y="96" width="24" height="14" rx="3" fill="#2d8a4e"/>
  <text x="96" y="155" text-anchor="middle" fill="#1a2b4a" font-family="Montserrat, sans-serif" font-size="11" font-weight="700">ViT1</text>
  <rect x="72" y="208" width="48" height="88" rx="8" fill="#2d8a4e" opacity="0.28" stroke="#2d8a4e" stroke-width="2"/>
  <rect x="84" y="196" width="24" height="14" rx="3" fill="#2d8a4e"/>
  <text x="96" y="255" text-anchor="middle" fill="#1a2b4a" font-family="Montserrat, sans-serif" font-size="11" font-weight="700">ViT2</text>
  <!-- !B@5;:8 ?>3@C65=8O -->
  <path d="M120 152h40" stroke="#2d8a4e" stroke-width="2"/>
  <path d="M120 250h40" stroke="#2d8a4e" stroke-width="2"/>
  <!-- @8>:>=A5@20F8O -->
  <rect x="360" y="118" width="120" height="150" rx="14" fill="#fff" stroke="#7ec8e3" stroke-width="2"/>
  <path d="M380 148h80M380 178h80M380 208h80M380 238h80" stroke="#7ec8e3" stroke-width="1" opacity="0.5"/>
  <text x="420" y="142" text-anchor="middle" fill="#1a2b4a" font-family="Inter, sans-serif" font-size="10" font-weight="600">E@0=8;8I5</text>
  <rect x="392" y="188" width="56" height="10" rx="5" fill="#2d8a4e" opacity="0.4"/>
  <circle cx="420" cy="193" r="4" fill="#e8d44a"/>
  <!-- !=568=:0 -->
  <path d="M420 268v20M410 278h20M413 271l14 14M413 285l14-14" stroke="#7ec8e3" stroke-width="1.5" stroke-linecap="round"/>
  <text x="280" y="310" text-anchor="middle" fill="#1a2b4a" font-family="Inter, sans-serif" font-size="12" opacity="0.7">8B@8D8:0F8O: ViT1 ’ ViT2 ’ E@0=5=85 2 684:>< 07>B5</text>
</svg>
